# xmcd CD database file
#
# Track frame offsets:
#	187
#	26782
#	43900
#	60442
#	77790
#	99460
#	113822
#	131262
#	147305
#	161430
#	181925
#
# Disc length: 2661 seconds
#
# Revision: 0
# Processed by: cddbd v1.5.1PL0 Copyright (c) Steve Scherf et al.
# Submitted via: CDex 1.51
#
DISCID=8d0a630b
DTITLE=INA SECTION - LET'S
DYEAR=1988
DGENRE=Pop
TTITLE0=Human Bloods
TTITLE1=Roman Shooting Life
TTITLE2=ESPER
TTITLE3=Call Me
TTITLE4=You are best selection
TTITLE5=FRIDAY NIGHT DREAM
TTITLE6=Fire City
TTITLE7=Running on the street
TTITLE8=Magic
TTITLE9=Stay Together
TTITLE10=Night Flight
EXTD=YEAR: 1988
EXTT0=
EXTT1=
EXTT2=
EXTT3=
EXTT4=
EXTT5=
EXTT6=
EXTT7=
EXTT8=
EXTT9=
EXTT10=
PLAYORDER=
